<?xml version="1.0" encoding="UTF-8"?><svg id="Layer_1" xmlns="http://www.w3.org/2000/svg" viewBox="0 0 1000 1000"><path d="m500,285.99c-117.99,0-214.01,96-214.01,214.01s96.02,214.01,214.01,214.01,214.01-96.02,214.01-214.01-96.02-214.01-214.01-214.01Zm0,366.87c-84.28,0-152.86-68.58-152.86-152.86s68.58-152.86,152.86-152.86,152.86,68.58,152.86,152.86-68.58,152.86-152.86,152.86Z" fill="#d1d3d4" stroke-width="0"/><path d="m897.44,316.57h-61.14v-61.14c0-34.68-19.57-64.56-48.04-80.14l22.69-45.38c9.55-19.11,8.54-41.34-2.69-59.49-11.23-18.15-30.66-28.99-52.01-28.99H243.75c-21.35,0-40.78,10.84-52.01,28.99-11.23,18.15-12.24,40.38-2.69,59.5l22.68,45.37c-28.46,15.59-48.03,45.46-48.03,80.14v61.14h-61.14c-33.71,0-61.14,27.42-61.14,61.14v244.58c0,33.71,27.44,61.14,61.14,61.14h61.14v91.72h-2.27c-32.45,0-58.88,26.42-58.88,58.88v65.68c0,32.45,26.42,58.88,58.88,58.88h677.13c32.45,0,58.88-26.42,58.88-58.88v-65.68c0-32.45-26.42-58.88-58.88-58.88h-2.27v-91.72h61.14c33.71,0,61.14-27.44,61.14-61.14v-244.58c0-33.72-27.44-61.14-61.14-61.14Zm-141.19-214.01l-30.57,61.14h-451.36l-30.57-61.14h512.51ZM102.56,622.29v-244.58h61.14v244.58h-61.14Zm733.74,275.15H163.7v-61.14h672.59v61.14Zm-611.45-122.29V255.42c0-16.85,13.7-30.57,30.57-30.57h489.16c16.87,0,30.57,13.72,30.57,30.57v519.73H224.85Zm672.59-152.86h-61.14v-244.58h61.14v244.58Z" fill="#d1d3d4" stroke-width="0"/></svg>