<?xml version="1.0" encoding="UTF-8"?><svg id="Layer_2" xmlns="http://www.w3.org/2000/svg" viewBox="0 0 1000 1000"><path d="m500,468.06c-61.62,0-111.76,50.14-111.76,111.76s50.14,111.76,111.76,111.76,111.76-50.14,111.76-111.76-50.14-111.76-111.76-111.76Zm0,159.66c-26.41,0-47.9-21.49-47.9-47.9s21.49-47.9,47.9-47.9,47.9,21.49,47.9,47.9-21.49,47.9-47.9,47.9Z" fill="#e6e7e8" stroke-width="0"/><path d="m500,432.98c52.83,0,95.8-42.97,95.8-95.8s-42.97-95.8-95.8-95.8-95.8,42.97-95.8,95.8,42.97,95.8,95.8,95.8Zm0-127.73c17.6,0,31.93,14.31,31.93,31.93s-14.33,31.93-31.93,31.93-31.93-14.31-31.93-31.93,14.33-31.93,31.93-31.93Z" fill="#e6e7e8" stroke-width="0"/><path d="m836.05,616.37l-144.46-88.85v-142.38c0-139.7-62.56-269.87-171.65-357.15-11.66-9.29-28.22-9.29-39.88,0-109.1,87.28-171.65,217.45-171.65,357.15v142.38l-144.46,88.85c-9.45,5.8-15.2,16.09-15.2,27.19v93.4c0,17.65,14.3,31.93,31.93,31.93h127.73v18.49c0,35.21,28.64,63.86,63.86,63.86v95.8c0,17.65,14.3,31.93,31.93,31.93h191.59c17.63,0,31.93-14.28,31.93-31.93v-95.8c35.22,0,63.86-28.66,63.86-63.86v-18.49h127.73c17.63,0,31.93-14.28,31.93-31.93v-93.4c0-11.1-5.75-21.39-15.2-27.19Zm-623.45,88.66v-43.63l95.8-58.91v102.53h-95.8Zm351.26,210.09h-127.73v-63.86h127.73v63.86Zm31.93-127.73h-223.53v-402.24c0-111.39,46.25-215.76,127.73-290.2,81.48,74.44,127.73,178.81,127.73,290.2l.02,160.09s-.02.09-.02.14v191.59c0,.07.04.13.04.2v50.22s-31.97,0-31.97,0Zm191.59-82.36h-95.8v-102.53l95.8,58.91v43.63Z" fill="#e6e7e8" stroke-width="0"/></svg>